<svg width="359" height="40" viewBox="0 0 359 40" fill="none" xmlns="http://www.w3.org/2000/svg">
<path fill-rule="evenodd" clip-rule="evenodd" d="M5.03807 38.1156V39.1156H6.03807H28.5381H29.5381V38.1156V34.6156H33.0381H34.0381V33.6156V31.2923H33.0381V32.6156V33.6156H32.0381H29.5381H28.5381V34.6156V37.1156V38.1156H27.5381H7.03807H6.03807V37.1156V34.6156V33.6156H5.03807H2.53807H1.53807V32.6156V31.2923H0.538071V33.6156V34.6156H1.53807H5.03807V38.1156ZM11.5381 31.2923V32.6156H23.0381V31.2923H24.0381V32.6156V33.6156H23.0381H11.5381H10.5381V32.6156V31.2923H11.5381ZM5.03807 6.11578V5.61556H6.03807H28.5381H29.5381V6.11578H5.03807ZM36.5381 31.2923V38.1156V39.1156H37.5381H46.5381H47.5381V38.1156V31.2923H46.5381V37.1156V38.1156H45.5381H38.5381H37.5381V37.1156V31.2923H36.5381ZM60.0381 31.2923V37.1156V38.1156H61.0381H68.0381H69.0381V37.1156V31.2923H70.0381V38.1156V39.1156H69.0381H60.0381H59.0381V38.1156V31.2923H60.0381ZM72.5381 31.2923V38.1156V39.1156H73.5381H82.5381H83.5381V38.1156V31.2923H82.5381V37.1156V38.1156H81.5381H74.5381H73.5381V37.1156V31.2923H72.5381ZM96.0381 31.2923V37.1156V38.1156H97.0381H104.038H105.038V37.1156V31.2923H106.038V38.1156V39.1156H105.038H96.0381H95.0381V38.1156V31.2923H96.0381ZM97.0381 6.11578H81.5381V5.61556H82.5381H96.0381H97.0381V6.11578ZM108.538 31.2923V38.1156V39.1156H109.538H118.538H119.538V38.1156V31.2923H118.538V37.1156V38.1156H117.538H110.538H109.538V37.1156V31.2923H108.538ZM123.038 31.2923V32.6156V33.6156H124.038H126.538H127.538V34.6156V37.1156V38.1156H128.538H140.038H141.038V37.1156V34.6156V33.6156H140.038H137.538H136.538V32.6156V31.2923H137.538V32.6156H141.038H142.038V33.6156V38.1156V39.1156H141.038H127.538H126.538V38.1156V34.6156H123.038H122.038V33.6156V31.2923H123.038ZM144.538 31.2923V38.1156V39.1156H145.538H177.038H178.038V38.1156V33.6156V32.6156H177.038H155.538V31.2923H154.538V32.6156V33.6156H155.538H176.038H177.038V34.6156V37.1156V38.1156H176.038H146.538H145.538V37.1156V31.2923H144.538ZM178.038 6.11578H144.538V5.61556H145.538H177.038H178.038V6.11578ZM221.038 31.2923V33.6156V34.6156H222.038H225.538V38.1156V39.1156H226.538H249.038H250.038V38.1156V31.2923H249.038V37.1156V38.1156H248.038H227.538H226.538V37.1156V34.6156V33.6156H225.538H223.038H222.038V32.6156V31.2923H221.038ZM231.038 31.2923V32.6156V33.6156H232.038H239.038H240.038V32.6156V31.2923H239.038V32.6156H232.038V31.2923H231.038ZM250.038 6.11578H225.538V5.61556H226.538H249.038H250.038V6.11578ZM252.538 31.2923V38.1156V39.1156H253.538H262.538H263.538V38.1156V31.2923H262.538V37.1156V38.1156H261.538H254.538H253.538V37.1156V31.2923H252.538ZM276.038 31.2923V37.1156V38.1156H277.038H284.038H285.038V37.1156V31.2923H286.038V38.1156V39.1156H285.038H276.038H275.038V38.1156V31.2923H276.038ZM277.038 6.11578H261.538V5.61556H262.538H276.038H277.038V6.11578ZM288.538 31.2923V38.1156V39.1156H289.538H298.538H299.538V38.1156V31.2923H298.538V37.1156V38.1156H297.538H290.538H289.538V37.1156V31.2923H288.538ZM312.038 31.2923V37.1156V38.1156H313.038H320.038H321.038V37.1156V31.2923H322.038V38.1156V39.1156H321.038H312.038H311.038V38.1156V31.2923H312.038ZM324.538 31.2923V38.1156V39.1156H325.538H357.038H358.038V38.1156V33.6156V32.6156H357.038H335.538V31.2923H334.538V32.6156V33.6156H335.538H356.038H357.038V34.6156V37.1156V38.1156H356.038H326.538H325.538V37.1156V31.2923H324.538ZM358.038 6.11578H324.538V5.61556H325.538H357.038H358.038V6.11578ZM322.038 6.11578H311.038V5.61556H312.038H321.038H322.038V6.11578ZM299.538 6.11578H288.538V5.61556H289.538H298.538H299.538V6.11578ZM142.038 6.11578H131.038V5.61556H132.038H141.038H142.038V6.11578ZM119.538 6.11578H108.538V5.61556H109.538H118.538H119.538V6.11578ZM70.0381 6.11578H59.0381V5.61556H60.0381H69.0381H70.0381V6.11578ZM47.5381 6.11578H36.5381V5.61556H37.5381H46.5381H47.5381V6.11578Z" fill="#3C4043"/>
<mask id="path-2-outside-1_1_10" maskUnits="userSpaceOnUse" x="0.538071" y="0.88443" width="358" height="34" fill="black">
<rect fill="white" x="0.538071" y="0.88443" width="358" height="34"/>
<path d="M6.03807 33.3844V28.8844H1.53807V24.3844H10.5381V28.8844H24.0381V19.8844H6.03807V15.3844H1.53807V6.38443H6.03807V1.88443H28.5381V6.38443H33.0381V10.8844H24.0381V6.38443H10.5381V15.3844H28.5381V19.8844H33.0381V28.8844H28.5381V33.3844H6.03807Z"/>
<path d="M37.5381 33.3844V1.88443H46.5381V6.38443H51.0381V10.8844H55.5381V15.3844H60.0381V1.88443H69.0381V33.3844H60.0381V24.3844H55.5381V19.8844H51.0381V15.3844H46.5381V33.3844H37.5381Z"/>
<path d="M73.5381 33.3844V10.8844H78.0381V6.38443H82.5381V1.88443H96.0381V6.38443H100.538V10.8844H105.038V33.3844H96.0381V24.3844H82.5381V33.3844H73.5381ZM82.5381 19.8844H96.0381V10.8844H91.5381V6.38443H87.0381V10.8844H82.5381V19.8844Z"/>
<path d="M109.538 33.3844V1.88443H118.538V15.3844H123.038V10.8844H127.538V6.38443H132.038V1.88443H141.038V6.38443H136.538V10.8844H132.038V15.3844H127.538V19.8844H132.038V24.3844H136.538V28.8844H141.038V33.3844H127.538V28.8844H123.038V24.3844H118.538V33.3844H109.538Z"/>
<path d="M145.538 33.3844V1.88443H177.038V6.38443H154.538V15.3844H172.538V19.8844H154.538V28.8844H177.038V33.3844H145.538Z"/>
<path d="M226.538 33.3844V28.8844H222.038V24.3844H217.538V10.8844H222.038V6.38443H226.538V1.88443H249.038V6.38443H231.038V10.8844H226.538V24.3844H231.038V28.8844H240.038V19.8844H235.538V15.3844H249.038V33.3844H226.538Z"/>
<path d="M253.538 33.3844V10.8844H258.038V6.38443H262.538V1.88443H276.038V6.38443H280.538V10.8844H285.038V33.3844H276.038V24.3844H262.538V33.3844H253.538ZM262.538 19.8844H276.038V10.8844H271.538V6.38443H267.038V10.8844H262.538V19.8844Z"/>
<path d="M289.538 33.3844V1.88443H298.538V6.38443H303.038V10.8844H307.538V6.38443H312.038V1.88443H321.038V33.3844H312.038V15.3844H307.538V24.3844H303.038V15.3844H298.538V33.3844H289.538Z"/>
<path d="M325.538 33.3844V1.88443H357.038V6.38443H334.538V15.3844H352.538V19.8844H334.538V28.8844H357.038V33.3844H325.538Z"/>
</mask>
<path d="M6.03807 33.3844V28.8844H1.53807V24.3844H10.5381V28.8844H24.0381V19.8844H6.03807V15.3844H1.53807V6.38443H6.03807V1.88443H28.5381V6.38443H33.0381V10.8844H24.0381V6.38443H10.5381V15.3844H28.5381V19.8844H33.0381V28.8844H28.5381V33.3844H6.03807Z" fill="white"/>
<path d="M37.5381 33.3844V1.88443H46.5381V6.38443H51.0381V10.8844H55.5381V15.3844H60.0381V1.88443H69.0381V33.3844H60.0381V24.3844H55.5381V19.8844H51.0381V15.3844H46.5381V33.3844H37.5381Z" fill="white"/>
<path d="M73.5381 33.3844V10.8844H78.0381V6.38443H82.5381V1.88443H96.0381V6.38443H100.538V10.8844H105.038V33.3844H96.0381V24.3844H82.5381V33.3844H73.5381ZM82.5381 19.8844H96.0381V10.8844H91.5381V6.38443H87.0381V10.8844H82.5381V19.8844Z" fill="white"/>
<path d="M109.538 33.3844V1.88443H118.538V15.3844H123.038V10.8844H127.538V6.38443H132.038V1.88443H141.038V6.38443H136.538V10.8844H132.038V15.3844H127.538V19.8844H132.038V24.3844H136.538V28.8844H141.038V33.3844H127.538V28.8844H123.038V24.3844H118.538V33.3844H109.538Z" fill="white"/>
<path d="M145.538 33.3844V1.88443H177.038V6.38443H154.538V15.3844H172.538V19.8844H154.538V28.8844H177.038V33.3844H145.538Z" fill="white"/>
<path d="M226.538 33.3844V28.8844H222.038V24.3844H217.538V10.8844H222.038V6.38443H226.538V1.88443H249.038V6.38443H231.038V10.8844H226.538V24.3844H231.038V28.8844H240.038V19.8844H235.538V15.3844H249.038V33.3844H226.538Z" fill="white"/>
<path d="M253.538 33.3844V10.8844H258.038V6.38443H262.538V1.88443H276.038V6.38443H280.538V10.8844H285.038V33.3844H276.038V24.3844H262.538V33.3844H253.538ZM262.538 19.8844H276.038V10.8844H271.538V6.38443H267.038V10.8844H262.538V19.8844Z" fill="white"/>
<path d="M289.538 33.3844V1.88443H298.538V6.38443H303.038V10.8844H307.538V6.38443H312.038V1.88443H321.038V33.3844H312.038V15.3844H307.538V24.3844H303.038V15.3844H298.538V33.3844H289.538Z" fill="white"/>
<path d="M325.538 33.3844V1.88443H357.038V6.38443H334.538V15.3844H352.538V19.8844H334.538V28.8844H357.038V33.3844H325.538Z" fill="white"/>
<path d="M6.03807 33.3844V28.8844H1.53807V24.3844H10.5381V28.8844H24.0381V19.8844H6.03807V15.3844H1.53807V6.38443H6.03807V1.88443H28.5381V6.38443H33.0381V10.8844H24.0381V6.38443H10.5381V15.3844H28.5381V19.8844H33.0381V28.8844H28.5381V33.3844H6.03807Z" stroke="white" stroke-width="2" mask="url(#path-2-outside-1_1_10)"/>
<path d="M37.5381 33.3844V1.88443H46.5381V6.38443H51.0381V10.8844H55.5381V15.3844H60.0381V1.88443H69.0381V33.3844H60.0381V24.3844H55.5381V19.8844H51.0381V15.3844H46.5381V33.3844H37.5381Z" stroke="white" stroke-width="2" mask="url(#path-2-outside-1_1_10)"/>
<path d="M73.5381 33.3844V10.8844H78.0381V6.38443H82.5381V1.88443H96.0381V6.38443H100.538V10.8844H105.038V33.3844H96.0381V24.3844H82.5381V33.3844H73.5381ZM82.5381 19.8844H96.0381V10.8844H91.5381V6.38443H87.0381V10.8844H82.5381V19.8844Z" stroke="white" stroke-width="2" mask="url(#path-2-outside-1_1_10)"/>
<path d="M109.538 33.3844V1.88443H118.538V15.3844H123.038V10.8844H127.538V6.38443H132.038V1.88443H141.038V6.38443H136.538V10.8844H132.038V15.3844H127.538V19.8844H132.038V24.3844H136.538V28.8844H141.038V33.3844H127.538V28.8844H123.038V24.3844H118.538V33.3844H109.538Z" stroke="white" stroke-width="2" mask="url(#path-2-outside-1_1_10)"/>
<path d="M145.538 33.3844V1.88443H177.038V6.38443H154.538V15.3844H172.538V19.8844H154.538V28.8844H177.038V33.3844H145.538Z" stroke="white" stroke-width="2" mask="url(#path-2-outside-1_1_10)"/>
<path d="M226.538 33.3844V28.8844H222.038V24.3844H217.538V10.8844H222.038V6.38443H226.538V1.88443H249.038V6.38443H231.038V10.8844H226.538V24.3844H231.038V28.8844H240.038V19.8844H235.538V15.3844H249.038V33.3844H226.538Z" stroke="white" stroke-width="2" mask="url(#path-2-outside-1_1_10)"/>
<path d="M253.538 33.3844V10.8844H258.038V6.38443H262.538V1.88443H276.038V6.38443H280.538V10.8844H285.038V33.3844H276.038V24.3844H262.538V33.3844H253.538ZM262.538 19.8844H276.038V10.8844H271.538V6.38443H267.038V10.8844H262.538V19.8844Z" stroke="white" stroke-width="2" mask="url(#path-2-outside-1_1_10)"/>
<path d="M289.538 33.3844V1.88443H298.538V6.38443H303.038V10.8844H307.538V6.38443H312.038V1.88443H321.038V33.3844H312.038V15.3844H307.538V24.3844H303.038V15.3844H298.538V33.3844H289.538Z" stroke="white" stroke-width="2" mask="url(#path-2-outside-1_1_10)"/>
<path d="M325.538 33.3844V1.88443H357.038V6.38443H334.538V15.3844H352.538V19.8844H334.538V28.8844H357.038V33.3844H325.538Z" stroke="white" stroke-width="2" mask="url(#path-2-outside-1_1_10)"/>
<rect x="187.288" y="24.2966" width="20.9298" height="5.1311" stroke="#3C4043"/>
<rect x="186.788" y="20.7311" width="21.9298" height="6.1311" fill="white"/>
</svg>
